# This file uses centimeters as units for non-parametric coordinates.

mtllib Billb.mtl
g default
v -0.500000 1.109603 -5.617672
v -0.500000 5.109603 -5.617672
v -0.500000 5.109603 -5.817672
v -0.500000 1.109603 -5.817672
v 0.500000 1.153369 -5.661438
v 0.456234 1.109603 -5.617672
v 0.456234 5.109603 -5.617672
v 0.500000 5.065837 -5.661438
v 0.456234 5.109603 -5.817672
v 0.500000 5.065837 -5.773907
v 0.456234 1.109603 -5.817672
v 0.500000 1.153369 -5.773907
vt 0.545597 0.061881
vt 0.566527 0.061881
vt 0.566527 0.418481
vt 0.545597 0.418481
vt 0.568791 0.061881
vt 0.573371 0.065783
vt 0.573371 0.414579
vt 0.568791 0.418481
vt 0.585141 0.065783
vt 0.585141 0.414579
vt 0.589721 0.418481
vt 0.589721 0.061881
vt 0.789328 0.061881
vt 0.793908 0.065923
vt 0.772978 0.065923
vt 0.777558 0.061881
vt 0.772978 0.154232
vt 0.793908 0.154232
vt 0.796106 0.065923
vt 0.800686 0.061881
vt 0.812456 0.061881
vt 0.817036 0.065923
vt 0.796106 0.154232
vt 0.817036 0.154232
vt 0.591919 0.061881
vt 0.680229 0.061881
vt 0.680229 0.418481
vt 0.591919 0.418481
vt 0.682449 0.061881
vt 0.770758 0.061881
vt 0.770758 0.418481
vt 0.682449 0.418481
vn -1.000000 0.000000 0.000000
vn -1.000000 0.000000 0.000000
vn -1.000000 0.000000 0.000000
vn -1.000000 0.000000 0.000000
vn 0.707107 -0.707106 0.000000
vn 0.707107 -0.707107 0.000000
vn 0.707106 -0.707107 0.000000
vn 0.707106 -0.707107 0.000000
vn 0.707107 0.000000 0.707106
vn 0.707107 0.000000 0.707106
vn 0.707107 0.000000 0.707106
vn 0.707107 0.000000 0.707106
vn 0.707106 0.707107 0.000000
vn 0.707106 0.707107 0.000000
vn 0.707107 0.707107 0.000000
vn 0.707107 0.707106 0.000000
vn 0.707107 0.000000 -0.707106
vn 0.707107 0.000000 -0.707106
vn 0.707107 0.000000 -0.707106
vn 0.707107 0.000000 -0.707106
vn 0.000000 0.000000 1.000000
vn 0.000000 0.000000 1.000000
vn 0.000000 0.000000 1.000000
vn 0.000000 0.000000 1.000000
vn 0.000000 1.000000 0.000000
vn 0.000000 1.000000 0.000000
vn 0.000000 1.000000 0.000000
vn 0.000000 1.000000 0.000000
vn 0.000000 0.000000 -1.000000
vn 0.000000 0.000000 -1.000000
vn 0.000000 0.000000 -1.000000
vn 0.000000 0.000000 -1.000000
vn 0.000000 -1.000000 0.000000
vn 0.000000 -1.000000 0.000000
vn 0.000000 -1.000000 0.000000
vn 0.000000 -1.000000 0.000000
vn 1.000000 0.000000 0.000000
vn 1.000000 0.000000 0.000000
vn 1.000000 0.000000 0.000000
vn 1.000000 0.000000 0.000000
g pCube2
usemtl blinn1SG
f 4/1/1 1/2/2 3/4/3
f 3/4/3 1/2/2 2/3/4
f 5/13/5 6/14/6 12/16/7
f 12/16/7 6/14/6 11/15/8
f 6/5/9 5/6/10 7/8/11
f 7/8/11 5/6/10 8/7/12
f 7/19/13 8/20/14 9/22/15
f 9/22/15 8/20/14 10/21/16
f 9/11/17 10/10/18 11/12/19
f 11/12/19 10/10/18 12/9/20
f 1/25/21 6/26/22 2/28/23
f 2/28/23 6/26/22 7/27/24
f 2/23/25 7/19/26 3/24/27
f 3/24/27 7/19/26 9/22/28
f 3/29/29 9/30/30 4/32/31
f 4/32/31 9/30/30 11/31/32
f 4/17/33 11/15/34 1/18/35
f 1/18/35 11/15/34 6/14/36
f 5/6/37 12/9/38 8/7/39
f 8/7/39 12/9/38 10/10/40
g set1 set2 tweakSet1
v 0.081583 1.699673 -5.752059
v 0.014640 1.727402 -5.752059
v -0.052304 1.699673 -5.752059
v -0.080033 1.632729 -5.752059
v -0.052304 1.565785 -5.752059
v 0.014640 1.538056 -5.752059
v 0.081583 1.565785 -5.752059
v 0.109312 1.632729 -5.752059
v 0.081583 1.699673 -3.411532
v 0.014640 1.727402 -3.411532
v -0.052304 1.699673 -3.411532
v -0.080033 1.632729 -3.411532
v -0.052304 1.565785 -3.411532
v 0.014640 1.538056 -3.411532
v 0.081583 1.565785 -3.411532
v 0.109312 1.632729 -3.411532
vt 0.091860 0.890377
vt 0.083087 0.890377
vt 0.083087 0.636878
vt 0.091860 0.636878
vt 0.074315 0.890377
vt 0.074315 0.636878
vt 0.109755 0.890377
vt 0.100982 0.890377
vt 0.100982 0.636878
vt 0.109755 0.636878
vt 0.092210 0.890377
vt 0.092210 0.636878
vt 0.338032 0.075095
vt 0.345156 0.092293
vt 0.338032 0.109491
vt 0.320834 0.116615
vt 0.303636 0.109491
vt 0.296512 0.092293
vt 0.303636 0.075095
vt 0.320834 0.067971
vt 0.392004 0.108373
vt 0.374806 0.115497
vt 0.357608 0.108373
vt 0.350485 0.091175
vt 0.357608 0.073977
vt 0.374806 0.066853
vt 0.392004 0.073977
vt 0.399128 0.091175
vt 0.163440 0.890377
vt 0.154668 0.890377
vt 0.154668 0.636878
vt 0.163440 0.636878
vt 0.145895 0.890377
vt 0.145895 0.636878
vt 0.128000 0.636878
vt 0.136773 0.636878
vt 0.136773 0.890377
vt 0.128000 0.890377
vt 0.145545 0.636878
vt 0.145545 0.890377
vn 0.382683 0.923880 -0.000000
vn 0.382683 0.923880 -0.000000
vn 0.382683 0.923880 -0.000000
vn 0.382683 0.923880 -0.000000
vn -0.382683 0.923880 -0.000000
vn -0.382683 0.923880 -0.000000
vn -0.382683 0.923880 -0.000000
vn -0.382683 0.923880 -0.000000
vn -0.923880 0.382683 -0.000000
vn -0.923880 0.382683 -0.000000
vn -0.923880 0.382683 -0.000000
vn -0.923880 0.382683 -0.000000
vn -0.923880 -0.382683 0.000000
vn -0.923880 -0.382683 0.000000
vn -0.923880 -0.382683 0.000000
vn -0.923880 -0.382683 0.000000
vn -0.382683 -0.923880 0.000000
vn -0.382683 -0.923880 0.000000
vn -0.382684 -0.923880 0.000000
vn -0.382684 -0.923879 0.000000
vn 0.382683 -0.923880 0.000000
vn 0.382683 -0.923880 0.000000
vn 0.382683 -0.923880 0.000000
vn 0.382683 -0.923880 0.000000
vn 0.923880 -0.382683 0.000000
vn 0.923880 -0.382683 0.000000
vn 0.923880 -0.382683 0.000000
vn 0.923880 -0.382683 0.000000
vn 0.923879 0.382684 -0.000000
vn 0.923879 0.382684 -0.000000
vn 0.923879 0.382684 -0.000000
vn 0.923879 0.382684 -0.000000
vn 0.000000 -0.000000 -1.000000
vn 0.000000 -0.000000 -1.000000
vn 0.000000 -0.000000 -1.000000
vn 0.000000 -0.000000 -1.000000
vn 0.000000 -0.000000 -1.000000
vn 0.000000 -0.000000 -1.000000
vn 0.000000 -0.000000 -1.000000
vn 0.000000 -0.000000 -1.000000
vn 0.000000 0.000000 1.000000
vn 0.000000 0.000000 1.000000
vn 0.000000 0.000000 1.000000
vn 0.000000 0.000000 1.000000
vn 0.000000 0.000000 1.000000
vn 0.000000 0.000000 1.000000
vn 0.000000 0.000000 1.000000
vn 0.000000 0.000000 1.000000
g pCylinder2
usemtl blinn1SG
f 13/61/41 14/62/42 21/64/43
f 21/64/43 14/62/42 22/63/44
f 14/62/45 15/65/46 22/63/47
f 22/63/47 15/65/46 23/66/48
f 15/33/49 16/34/50 23/36/51
f 23/36/51 16/34/50 24/35/52
f 16/34/53 17/37/54 24/35/55
f 24/35/55 17/37/54 25/38/56
f 17/67/57 18/68/58 25/70/59
f 25/70/59 18/68/58 26/69/60
f 18/68/61 19/71/62 26/69/63
f 26/69/63 19/71/62 27/72/64
f 19/39/65 20/40/66 27/42/67
f 27/42/67 20/40/66 28/41/68
f 20/40/69 13/43/70 28/41/71
f 28/41/71 13/43/70 21/44/72
f 13/45/73 20/46/74 14/52/75
f 20/46/74 19/47/76 14/52/75
f 19/47/76 18/48/77 14/52/75
f 18/48/77 17/49/78 14/52/75
f 17/49/78 16/50/79 14/52/75
f 16/50/79 15/51/80 14/52/75
f 21/53/81 22/54/82 28/60/83
f 22/54/82 23/55/84 28/60/83
f 23/55/84 24/56/85 28/60/83
f 24/56/85 25/57/86 28/60/83
f 25/57/86 26/58/87 28/60/83
f 26/58/87 27/59/88 28/60/83
g default
v -0.125000 1.244756 3.500000
v -0.125000 5.244756 3.500000
v -0.125000 5.244756 -3.500000
v -0.125000 1.244756 -3.500000
v 0.124990 1.611834 -2.857613
v 0.124990 1.611834 2.857613
v 0.124990 4.877677 -2.857613
v 0.124990 4.877677 2.857613
v 0.015586 1.244756 3.500000
v 0.125000 1.354170 3.390586
v 0.015586 5.244756 3.500000
v 0.125000 5.135342 3.390586
v 0.015586 5.244756 -3.500000
v 0.125000 5.135342 -3.390586
v 0.015586 1.244756 -3.500000
v 0.125000 1.354170 -3.390586
v -0.075000 1.811814 -2.657633
v -0.016427 1.670407 -2.799040
v -0.016427 1.670407 2.799040
v -0.075000 1.811814 2.657633
v -0.075000 4.677698 -2.657633
v -0.016427 4.819105 -2.799040
v -0.075000 4.677698 2.657633
v -0.016427 4.819105 2.799040
vt 0.054602 0.222554
vt 0.054602 0.050205
vt 0.191554 0.050205
vt 0.191554 0.222554
vt 0.020860 0.272275
vt 0.020860 0.015793
vt 0.034412 0.035952
vt 0.034412 0.252117
vt 0.219733 0.015793
vt 0.206181 0.035952
vt 0.219733 0.272275
vt 0.206181 0.252117
vt 0.486192 0.956192
vt 0.486192 0.433574
vt 0.878038 0.433574
vt 0.878038 0.956192
vt 0.058812 0.581530
vt 0.047146 0.585668
vt 0.047146 0.320909
vt 0.058812 0.325048
vt 0.032156 0.320909
vt 0.032156 0.585668
vt 0.074132 0.320909
vt 0.085798 0.325048
vt 0.085798 0.581530
vt 0.074132 0.585668
vt 0.059142 0.320909
vt 0.059142 0.585668
vt 0.161425 0.537072
vt 0.146346 0.534857
vt 0.146346 0.323122
vt 0.161425 0.320907
vt 0.140101 0.529508
vt 0.140101 0.328470
vt 0.161690 0.328470
vt 0.167935 0.323122
vt 0.167935 0.534856
vt 0.161690 0.529508
vt 0.183014 0.320907
vt 0.183014 0.537072
vt 0.101118 0.320909
vt 0.112785 0.326664
vt 0.112785 0.525537
vt 0.101118 0.531292
vt 0.086128 0.320909
vt 0.086128 0.531292
vt 0.128105 0.320909
vt 0.139771 0.326664
vt 0.139771 0.525538
vt 0.128105 0.531292
vt 0.113115 0.320909
vt 0.113115 0.531292
vt 0.183279 0.331423
vt 0.189524 0.323986
vt 0.189524 0.489594
vt 0.183279 0.482157
vt 0.204603 0.320905
vt 0.204603 0.492675
vt 0.226192 0.492675
vt 0.211113 0.489594
vt 0.211113 0.323986
vt 0.226192 0.320905
vt 0.204868 0.482157
vt 0.204868 0.331423
vn -1.000000 0.000000 0.000000
vn -1.000000 0.000000 0.000000
vn -1.000000 0.000000 0.000000
vn -1.000000 0.000000 0.000000
vn 0.707107 0.000000 0.707106
vn 0.707107 0.000000 0.707106
vn 0.707107 0.000000 0.707107
vn 0.707106 0.000000 0.707107
vn 0.707107 -0.707107 0.000000
vn 0.707107 -0.707107 0.000000
vn 0.707107 -0.707107 0.000000
vn 0.707107 -0.707107 0.000000
vn 0.707107 0.707107 0.000000
vn 0.707107 0.707107 0.000000
vn 0.707107 0.707107 0.000000
vn 0.707107 0.707107 0.000000
vn 0.707107 0.000000 -0.707106
vn 0.707107 0.000000 -0.707106
vn 0.707107 0.000000 -0.707107
vn 0.707106 0.000000 -0.707107
vn 0.000000 0.000000 1.000000
vn 0.000000 0.000000 1.000000
vn 0.000000 0.000000 1.000000
vn 0.000000 0.000000 1.000000
vn 0.000000 1.000000 0.000000
vn 0.000000 1.000000 0.000000
vn 0.000000 1.000000 0.000000
vn 0.000000 1.000000 0.000000
vn 0.000000 0.000000 -1.000000
vn 0.000000 0.000000 -1.000000
vn 0.000000 0.000000 -1.000000
vn 0.000000 0.000000 -1.000000
vn 0.000000 -1.000000 0.000000
vn 0.000000 -1.000000 0.000000
vn 0.000000 -1.000000 0.000000
vn 0.000000 -1.000000 0.000000
vn 1.000000 0.000017 -0.000010
vn 1.000000 0.000015 0.000012
vn 1.000000 0.000020 -0.000009
vn 1.000000 0.000017 0.000010
vn 1.000000 -0.000017 0.000010
vn 1.000000 -0.000020 0.000009
vn 1.000000 -0.000015 -0.000012
vn 1.000000 -0.000017 -0.000010
vn 0.382660 0.923889 0.000000
vn 0.382660 0.923889 0.000000
vn 0.382660 0.923889 0.000000
vn 0.382660 0.923889 0.000000
vn 0.923880 0.382683 0.000000
vn 0.999723 0.020749 0.011134
vn 0.923880 0.382683 0.000000
vn 0.999730 0.019879 -0.012039
vn 0.999723 -0.020749 -0.011134
vn 0.999730 -0.019879 0.012039
vn 0.923879 0.000000 0.382685
vn 0.923880 0.000000 0.382684
vn 0.382661 0.000000 0.923889
vn 0.382661 0.000000 0.923889
vn 0.382661 0.000000 0.923889
vn 0.382660 0.000000 0.923889
vn 0.923879 -0.382684 0.000000
vn 0.923879 -0.382684 0.000000
vn 0.382660 -0.923889 0.000000
vn 0.382660 -0.923889 0.000000
vn 0.382660 -0.923889 0.000000
vn 0.382660 -0.923889 0.000000
vn 0.382660 0.000000 -0.923889
vn 0.382661 0.000000 -0.923889
vn 0.382661 0.000000 -0.923889
vn 0.382661 0.000000 -0.923889
vn 0.923879 0.000000 -0.382684
vn 0.923879 0.000000 -0.382684
g pCube1
usemtl blinn1SG
f 32/73/89 29/74/90 31/76/91
f 31/76/91 29/74/90 30/75/92
f 37/113/93 38/114/94 39/116/95
f 39/116/95 38/114/94 40/115/96
f 38/89/97 37/90/98 44/92/99
f 44/92/99 37/90/98 43/91/100
f 39/95/101 40/96/102 41/98/103
f 41/98/103 40/96/102 42/97/104
f 41/119/105 42/120/106 43/122/107
f 43/122/107 42/120/106 44/121/108
f 29/117/109 37/113/110 30/118/111
f 30/118/111 37/113/110 39/116/112
f 30/99/113 39/95/114 31/100/115
f 31/100/115 39/95/114 41/98/116
f 31/123/117 41/119/118 32/124/119
f 32/124/119 41/119/118 43/122/120
f 32/93/121 43/91/122 29/94/123
f 29/94/123 43/91/122 37/90/124
f 38/77/125 44/78/126 34/80/127
f 34/80/127 44/78/126 33/79/128
f 44/78/126 42/81/129 33/79/128
f 33/79/128 42/81/129 35/82/130
f 42/81/129 40/83/131 35/82/130
f 35/82/130 40/83/131 36/84/132
f 40/83/131 38/77/125 36/84/132
f 36/84/132 38/77/125 34/80/127
f 33/101/133 46/102/134 34/104/135
f 34/104/135 46/102/134 47/103/136
f 46/102/137 45/105/138 47/103/139
f 47/103/139 45/105/138 48/106/140
f 48/85/140 45/86/138 51/88/141
f 51/88/141 45/86/138 49/87/142
f 45/125/138 46/126/143 49/128/142
f 49/128/142 46/126/143 50/127/144
f 46/126/145 33/129/146 50/127/147
f 50/127/147 33/129/146 35/130/148
f 49/107/142 50/108/149 51/110/141
f 51/110/141 50/108/149 52/109/150
f 50/108/151 35/111/152 52/109/153
f 52/109/153 35/111/152 36/112/154
f 34/131/155 47/132/156 36/134/157
f 36/134/157 47/132/156 52/133/158
f 47/132/159 48/135/140 52/133/160
f 52/133/160 48/135/140 51/136/141
g default
v 0.081583 4.564437 -5.752059
v 0.014640 4.592166 -5.752059
v -0.052304 4.564437 -5.752059
v -0.080033 4.497494 -5.752059
v -0.052304 4.430550 -5.752059
v 0.014640 4.402821 -5.752059
v 0.081583 4.430550 -5.752059
v 0.109312 4.497494 -5.752059
v 0.081583 4.564437 -3.411532
v 0.014640 4.592166 -3.411532
v -0.052304 4.564437 -3.411532
v -0.080033 4.497494 -3.411532
v -0.052304 4.430550 -3.411532
v 0.014640 4.402821 -3.411532
v 0.081583 4.430550 -3.411532
v 0.109312 4.497494 -3.411532
vt 0.091860 0.890377
vt 0.083087 0.890377
vt 0.083087 0.636878
vt 0.091860 0.636878
vt 0.074315 0.890377
vt 0.074315 0.636878
vt 0.109755 0.890377
vt 0.100982 0.890377
vt 0.100982 0.636878
vt 0.109755 0.636878
vt 0.092210 0.890377
vt 0.092210 0.636878
vt 0.338032 0.075095
vt 0.345156 0.092293
vt 0.338032 0.109491
vt 0.320834 0.116615
vt 0.303636 0.109491
vt 0.296512 0.092293
vt 0.303636 0.075095
vt 0.320834 0.067971
vt 0.392004 0.108373
vt 0.374806 0.115497
vt 0.357608 0.108373
vt 0.350485 0.091175
vt 0.357608 0.073977
vt 0.374806 0.066853
vt 0.392004 0.073977
vt 0.399128 0.091175
vt 0.163440 0.890377
vt 0.154668 0.890377
vt 0.154668 0.636878
vt 0.163440 0.636878
vt 0.145895 0.890377
vt 0.145895 0.636878
vt 0.128000 0.636878
vt 0.136773 0.636878
vt 0.136773 0.890377
vt 0.128000 0.890377
vt 0.145545 0.636878
vt 0.145545 0.890377
vn 0.382683 0.923880 -0.000000
vn 0.382683 0.923880 -0.000000
vn 0.382683 0.923880 -0.000000
vn 0.382683 0.923880 -0.000000
vn -0.382683 0.923880 -0.000000
vn -0.382683 0.923880 -0.000000
vn -0.382683 0.923880 -0.000000
vn -0.382683 0.923880 -0.000000
vn -0.923880 0.382683 -0.000000
vn -0.923880 0.382683 -0.000000
vn -0.923880 0.382683 -0.000000
vn -0.923880 0.382683 -0.000000
vn -0.923880 -0.382683 0.000000
vn -0.923880 -0.382683 0.000000
vn -0.923880 -0.382683 0.000000
vn -0.923880 -0.382683 0.000000
vn -0.382683 -0.923880 0.000000
vn -0.382683 -0.923880 0.000000
vn -0.382683 -0.923880 0.000000
vn -0.382683 -0.923880 0.000000
vn 0.382683 -0.923880 0.000000
vn 0.382683 -0.923880 0.000000
vn 0.382683 -0.923880 0.000000
vn 0.382683 -0.923880 0.000000
vn 0.923880 -0.382683 0.000000
vn 0.923880 -0.382683 0.000000
vn 0.923880 -0.382683 0.000000
vn 0.923880 -0.382683 0.000000
vn 0.923880 0.382683 -0.000000
vn 0.923880 0.382683 -0.000000
vn 0.923880 0.382683 -0.000000
vn 0.923880 0.382683 -0.000000
vn 0.000000 -0.000000 -1.000000
vn 0.000000 -0.000000 -1.000000
vn 0.000000 -0.000000 -1.000000
vn 0.000000 -0.000000 -1.000000
vn 0.000000 -0.000000 -1.000000
vn 0.000000 -0.000000 -1.000000
vn 0.000000 -0.000000 -1.000000
vn 0.000000 -0.000000 -1.000000
vn 0.000000 0.000000 1.000000
vn 0.000000 0.000000 1.000000
vn 0.000000 0.000000 1.000000
vn 0.000000 0.000000 1.000000
vn 0.000000 0.000000 1.000000
vn 0.000000 0.000000 1.000000
vn 0.000000 0.000000 1.000000
vn 0.000000 0.000000 1.000000
g pCylinder3
usemtl blinn1SG
f 53/165/161 54/166/162 61/168/163
f 61/168/163 54/166/162 62/167/164
f 54/166/165 55/169/166 62/167/167
f 62/167/167 55/169/166 63/170/168
f 55/137/169 56/138/170 63/140/171
f 63/140/171 56/138/170 64/139/172
f 56/138/173 57/141/174 64/139/175
f 64/139/175 57/141/174 65/142/176
f 57/171/177 58/172/178 65/174/179
f 65/174/179 58/172/178 66/173/180
f 58/172/181 59/175/182 66/173/183
f 66/173/183 59/175/182 67/176/184
f 59/143/185 60/144/186 67/146/187
f 67/146/187 60/144/186 68/145/188
f 60/144/189 53/147/190 68/145/191
f 68/145/191 53/147/190 61/148/192
f 53/149/193 60/150/194 54/156/195
f 60/150/194 59/151/196 54/156/195
f 59/151/196 58/152/197 54/156/195
f 58/152/197 57/153/198 54/156/195
f 57/153/198 56/154/199 54/156/195
f 56/154/199 55/155/200 54/156/195
f 61/157/201 62/158/202 68/164/203
f 62/158/202 63/159/204 68/164/203
f 63/159/204 64/160/205 68/164/203
f 64/160/205 65/161/206 68/164/203
f 65/161/206 66/162/207 68/164/203
f 66/162/207 67/163/208 68/164/203
