# This file uses centimeters as units for non-parametric coordinates.

mtllib billb2.mtl
g default
v -0.125000 1.244756 3.393308
v -0.125000 5.244756 3.393308
v -0.125000 5.244756 -3.606692
v -0.125000 1.244756 -3.606692
v 0.124990 1.611834 -2.964305
v 0.124990 1.611834 2.750922
v 0.124990 4.877677 -2.964305
v 0.124990 4.877677 2.750922
v 0.015586 1.244756 3.393308
v 0.125000 1.354170 3.283894
v 0.015586 5.244756 3.393308
v 0.125000 5.135342 3.283894
v 0.015586 5.244756 -3.606692
v 0.125000 5.135342 -3.497278
v 0.015586 1.244756 -3.606692
v 0.125000 1.354170 -3.497278
v -0.075000 1.811814 -2.764325
v -0.016427 1.670407 -2.905732
v -0.016427 1.670407 2.692349
v -0.075000 1.811814 2.550942
v -0.075000 4.677698 -2.764325
v -0.016427 4.819105 -2.905732
v -0.075000 4.677698 2.550942
v -0.016427 4.819105 2.692349
vt 0.054602 0.222554
vt 0.054602 0.050205
vt 0.191554 0.050205
vt 0.191554 0.222554
vt 0.020860 0.272275
vt 0.020860 0.015793
vt 0.034412 0.035952
vt 0.034412 0.252117
vt 0.219733 0.015793
vt 0.206181 0.035952
vt 0.219733 0.272275
vt 0.206181 0.252117
vt 0.486192 0.956192
vt 0.486192 0.433574
vt 0.878038 0.433574
vt 0.878038 0.956192
vt 0.058812 0.581530
vt 0.047146 0.585668
vt 0.047146 0.320909
vt 0.058812 0.325048
vt 0.032156 0.320909
vt 0.032156 0.585668
vt 0.074132 0.320909
vt 0.085798 0.325048
vt 0.085798 0.581530
vt 0.074132 0.585668
vt 0.059142 0.320909
vt 0.059142 0.585668
vt 0.161425 0.537072
vt 0.146346 0.534857
vt 0.146346 0.323122
vt 0.161425 0.320907
vt 0.140101 0.529508
vt 0.140101 0.328470
vt 0.161690 0.328470
vt 0.167935 0.323122
vt 0.167935 0.534856
vt 0.161690 0.529508
vt 0.183014 0.320907
vt 0.183014 0.537072
vt 0.101118 0.320909
vt 0.112785 0.326664
vt 0.112785 0.525537
vt 0.101118 0.531292
vt 0.086128 0.320909
vt 0.086128 0.531292
vt 0.128105 0.320909
vt 0.139771 0.326664
vt 0.139771 0.525538
vt 0.128105 0.531292
vt 0.113115 0.320909
vt 0.113115 0.531292
vt 0.183279 0.331423
vt 0.189524 0.323986
vt 0.189524 0.489594
vt 0.183279 0.482157
vt 0.204603 0.320905
vt 0.204603 0.492675
vt 0.226192 0.492675
vt 0.211113 0.489594
vt 0.211113 0.323986
vt 0.226192 0.320905
vt 0.204868 0.482157
vt 0.204868 0.331423
vn -1.000000 0.000000 0.000000
vn -1.000000 0.000000 0.000000
vn -1.000000 0.000000 0.000000
vn -1.000000 0.000000 0.000000
vn 0.707107 0.000000 0.707106
vn 0.707107 0.000000 0.707106
vn 0.707107 0.000000 0.707107
vn 0.707106 0.000000 0.707107
vn 0.707107 -0.707107 0.000000
vn 0.707107 -0.707107 0.000000
vn 0.707107 -0.707107 0.000000
vn 0.707107 -0.707107 0.000000
vn 0.707107 0.707107 0.000000
vn 0.707107 0.707107 0.000000
vn 0.707107 0.707107 0.000000
vn 0.707107 0.707107 0.000000
vn 0.707107 0.000000 -0.707106
vn 0.707107 0.000000 -0.707106
vn 0.707107 0.000000 -0.707107
vn 0.707106 0.000000 -0.707107
vn 0.000000 0.000000 1.000000
vn 0.000000 0.000000 1.000000
vn 0.000000 0.000000 1.000000
vn 0.000000 0.000000 1.000000
vn 0.000000 1.000000 0.000000
vn 0.000000 1.000000 0.000000
vn 0.000000 1.000000 0.000000
vn 0.000000 1.000000 0.000000
vn 0.000000 0.000000 -1.000000
vn 0.000000 0.000000 -1.000000
vn 0.000000 0.000000 -1.000000
vn 0.000000 0.000000 -1.000000
vn 0.000000 -1.000000 0.000000
vn 0.000000 -1.000000 0.000000
vn 0.000000 -1.000000 0.000000
vn 0.000000 -1.000000 0.000000
vn 1.000000 0.000017 -0.000010
vn 1.000000 0.000015 0.000012
vn 1.000000 0.000020 -0.000009
vn 1.000000 0.000017 0.000010
vn 1.000000 -0.000017 0.000010
vn 1.000000 -0.000020 0.000009
vn 1.000000 -0.000015 -0.000012
vn 1.000000 -0.000017 -0.000010
vn 0.382660 0.923889 0.000000
vn 0.382660 0.923889 0.000000
vn 0.382660 0.923889 0.000000
vn 0.382660 0.923889 0.000000
vn 0.923880 0.382683 0.000000
vn 0.999723 0.020749 0.011134
vn 0.923880 0.382683 0.000000
vn 0.999730 0.019879 -0.012039
vn 0.999723 -0.020749 -0.011134
vn 0.999730 -0.019879 0.012039
vn 0.923879 0.000000 0.382685
vn 0.923880 0.000000 0.382684
vn 0.382661 0.000000 0.923889
vn 0.382661 0.000000 0.923889
vn 0.382661 0.000000 0.923889
vn 0.382660 0.000000 0.923889
vn 0.923879 -0.382684 0.000000
vn 0.923879 -0.382684 0.000000
vn 0.382660 -0.923889 0.000000
vn 0.382660 -0.923889 0.000000
vn 0.382660 -0.923889 0.000000
vn 0.382660 -0.923889 0.000000
vn 0.382660 0.000000 -0.923889
vn 0.382661 0.000000 -0.923889
vn 0.382661 0.000000 -0.923889
vn 0.382661 0.000000 -0.923889
vn 0.923879 0.000000 -0.382684
vn 0.923879 0.000000 -0.382684
g pCube1
usemtl blinn1SG
f 4/1/1 1/2/2 3/4/3
f 3/4/3 1/2/2 2/3/4
f 9/41/5 10/42/6 11/44/7
f 11/44/7 10/42/6 12/43/8
f 10/17/9 9/18/10 16/20/11
f 16/20/11 9/18/10 15/19/12
f 11/23/13 12/24/14 13/26/15
f 13/26/15 12/24/14 14/25/16
f 13/47/17 14/48/18 15/50/19
f 15/50/19 14/48/18 16/49/20
f 1/45/21 9/41/22 2/46/23
f 2/46/23 9/41/22 11/44/24
f 2/27/25 11/23/26 3/28/27
f 3/28/27 11/23/26 13/26/28
f 3/51/29 13/47/30 4/52/31
f 4/52/31 13/47/30 15/50/32
f 4/21/33 15/19/34 1/22/35
f 1/22/35 15/19/34 9/18/36
f 10/5/37 16/6/38 6/8/39
f 6/8/39 16/6/38 5/7/40
f 16/6/38 14/9/41 5/7/40
f 5/7/40 14/9/41 7/10/42
f 14/9/41 12/11/43 7/10/42
f 7/10/42 12/11/43 8/12/44
f 12/11/43 10/5/37 8/12/44
f 8/12/44 10/5/37 6/8/39
f 5/29/45 18/30/46 6/32/47
f 6/32/47 18/30/46 19/31/48
f 18/30/49 17/33/50 19/31/51
f 19/31/51 17/33/50 20/34/52
f 20/13/52 17/14/50 23/16/53
f 23/16/53 17/14/50 21/15/54
f 17/53/50 18/54/55 21/56/54
f 21/56/54 18/54/55 22/55/56
f 18/54/57 5/57/58 22/55/59
f 22/55/59 5/57/58 7/58/60
f 21/35/54 22/36/61 23/38/53
f 23/38/53 22/36/61 24/37/62
f 22/36/63 7/39/64 24/37/65
f 24/37/65 7/39/64 8/40/66
f 6/59/67 19/60/68 8/62/69
f 8/62/69 19/60/68 24/61/70
f 19/60/71 20/63/52 24/61/72
f 24/61/72 20/63/52 23/64/53
g default
v 0.081583 -0.827632 -3.053130
v 0.014640 -0.827632 -3.080859
v -0.052304 -0.827632 -3.053130
v -0.080033 -0.827632 -2.986187
v -0.052304 -0.827632 -2.919243
v 0.014640 -0.827632 -2.891514
v 0.081583 -0.827632 -2.919243
v 0.109312 -0.827632 -2.986187
v 0.081583 1.512895 -3.053130
v 0.014640 1.512895 -3.080859
v -0.052304 1.512895 -3.053130
v -0.080033 1.512895 -2.986187
v -0.052304 1.512895 -2.919243
v 0.014640 1.512895 -2.891514
v 0.081583 1.512895 -2.919243
v 0.109312 1.512895 -2.986187
vt 0.091860 0.890377
vt 0.083087 0.890377
vt 0.083087 0.636878
vt 0.091860 0.636878
vt 0.074315 0.890377
vt 0.074315 0.636878
vt 0.109755 0.890377
vt 0.100982 0.890377
vt 0.100982 0.636878
vt 0.109755 0.636878
vt 0.092210 0.890377
vt 0.092210 0.636878
vt 0.338032 0.075095
vt 0.345156 0.092293
vt 0.338032 0.109491
vt 0.320834 0.116615
vt 0.303636 0.109491
vt 0.296512 0.092293
vt 0.303636 0.075095
vt 0.320834 0.067971
vt 0.392004 0.108373
vt 0.374806 0.115497
vt 0.357608 0.108373
vt 0.350485 0.091175
vt 0.357608 0.073977
vt 0.374806 0.066853
vt 0.392004 0.073977
vt 0.399128 0.091175
vt 0.163440 0.890377
vt 0.154668 0.890377
vt 0.154668 0.636878
vt 0.163440 0.636878
vt 0.145895 0.890377
vt 0.145895 0.636878
vt 0.128000 0.636878
vt 0.136773 0.636878
vt 0.136773 0.890377
vt 0.128000 0.890377
vt 0.145545 0.636878
vt 0.145545 0.890377
vn 0.382683 0.000000 -0.923880
vn 0.382683 0.000000 -0.923880
vn 0.382683 0.000000 -0.923880
vn 0.382683 0.000000 -0.923880
vn -0.382683 0.000000 -0.923880
vn -0.382683 0.000000 -0.923880
vn -0.382683 0.000000 -0.923880
vn -0.382683 0.000000 -0.923880
vn -0.923880 0.000000 -0.382683
vn -0.923880 0.000000 -0.382683
vn -0.923880 0.000000 -0.382683
vn -0.923880 0.000000 -0.382683
vn -0.923880 0.000000 0.382683
vn -0.923880 0.000000 0.382683
vn -0.923880 0.000000 0.382683
vn -0.923880 0.000000 0.382683
vn -0.382683 0.000000 0.923880
vn -0.382683 0.000000 0.923880
vn -0.382683 0.000000 0.923880
vn -0.382683 0.000000 0.923880
vn 0.382683 0.000000 0.923880
vn 0.382683 0.000000 0.923880
vn 0.382683 0.000000 0.923880
vn 0.382683 0.000000 0.923880
vn 0.923880 0.000000 0.382683
vn 0.923880 0.000000 0.382683
vn 0.923880 0.000000 0.382683
vn 0.923880 0.000000 0.382683
vn 0.923880 0.000000 -0.382683
vn 0.923880 0.000000 -0.382683
vn 0.923880 0.000000 -0.382683
vn 0.923880 0.000000 -0.382683
vn 0.000000 -1.000000 0.000000
vn 0.000000 -1.000000 0.000000
vn 0.000000 -1.000000 0.000000
vn 0.000000 -1.000000 0.000000
vn 0.000000 -1.000000 0.000000
vn 0.000000 -1.000000 0.000000
vn 0.000000 -1.000000 0.000000
vn 0.000000 -1.000000 0.000000
vn 0.000000 1.000000 0.000000
vn 0.000000 1.000000 0.000000
vn 0.000000 1.000000 0.000000
vn 0.000000 1.000000 0.000000
vn 0.000000 1.000000 0.000000
vn 0.000000 1.000000 0.000000
vn 0.000000 1.000000 0.000000
vn 0.000000 1.000000 0.000000
g pCylinder3
usemtl blinn1SG
f 25/93/73 26/94/74 33/96/75
f 33/96/75 26/94/74 34/95/76
f 26/94/77 27/97/78 34/95/79
f 34/95/79 27/97/78 35/98/80
f 27/65/81 28/66/82 35/68/83
f 35/68/83 28/66/82 36/67/84
f 28/66/85 29/69/86 36/67/87
f 36/67/87 29/69/86 37/70/88
f 29/99/89 30/100/90 37/102/91
f 37/102/91 30/100/90 38/101/92
f 30/100/93 31/103/94 38/101/95
f 38/101/95 31/103/94 39/104/96
f 31/71/97 32/72/98 39/74/99
f 39/74/99 32/72/98 40/73/100
f 32/72/101 25/75/102 40/73/103
f 40/73/103 25/75/102 33/76/104
f 25/77/105 32/78/106 26/84/107
f 32/78/106 31/79/108 26/84/107
f 31/79/108 30/80/109 26/84/107
f 30/80/109 29/81/110 26/84/107
f 29/81/110 28/82/111 26/84/107
f 28/82/111 27/83/112 26/84/107
f 33/85/113 34/86/114 40/92/115
f 34/86/114 35/87/116 40/92/115
f 35/87/116 36/88/117 40/92/115
f 36/88/117 37/89/118 40/92/115
f 37/89/118 38/90/119 40/92/115
f 38/90/119 39/91/120 40/92/115
g default
v -0.869209 -0.858178 -3.588103
v -0.869209 -0.858178 3.365567
v -0.869209 -0.510494 3.365567
v -0.869209 -0.510494 -3.588103
v 0.869209 -0.782095 -3.512020
v 0.793126 -0.858178 -3.588103
v 0.793126 -0.858178 3.365567
v 0.869209 -0.782095 3.289484
v 0.793126 -0.510494 3.365567
v 0.869209 -0.586577 3.289484
v 0.793126 -0.510494 -3.588103
v 0.869209 -0.586577 -3.512020
vt 0.545597 0.061881
vt 0.566527 0.061881
vt 0.566527 0.418481
vt 0.545597 0.418481
vt 0.568791 0.061881
vt 0.573371 0.065783
vt 0.573371 0.414579
vt 0.568791 0.418481
vt 0.585141 0.065783
vt 0.585141 0.414579
vt 0.589721 0.418481
vt 0.589721 0.061881
vt 0.789328 0.061881
vt 0.793908 0.065923
vt 0.772978 0.065923
vt 0.777558 0.061881
vt 0.772978 0.154232
vt 0.793908 0.154232
vt 0.796106 0.065923
vt 0.800686 0.061881
vt 0.812456 0.061881
vt 0.817036 0.065923
vt 0.796106 0.154232
vt 0.817036 0.154232
vt 0.591919 0.061881
vt 0.680229 0.061881
vt 0.680229 0.418481
vt 0.591919 0.418481
vt 0.682449 0.061881
vt 0.770758 0.061881
vt 0.770758 0.418481
vt 0.682449 0.418481
vn -1.000000 0.000000 0.000000
vn -1.000000 0.000000 0.000000
vn -1.000000 0.000000 0.000000
vn -1.000000 0.000000 0.000000
vn 0.707107 -0.000000 -0.707106
vn 0.707107 -0.000000 -0.707107
vn 0.707106 -0.000000 -0.707107
vn 0.707106 -0.000000 -0.707107
vn 0.707107 -0.707106 0.000000
vn 0.707107 -0.707106 0.000000
vn 0.707107 -0.707106 0.000000
vn 0.707107 -0.707106 0.000000
vn 0.707106 0.000000 0.707107
vn 0.707106 0.000000 0.707107
vn 0.707107 0.000000 0.707107
vn 0.707107 0.000000 0.707106
vn 0.707107 0.707106 -0.000000
vn 0.707107 0.707106 -0.000000
vn 0.707107 0.707106 -0.000000
vn 0.707107 0.707106 -0.000000
vn 0.000000 -1.000000 0.000000
vn 0.000000 -1.000000 0.000000
vn 0.000000 -1.000000 0.000000
vn 0.000000 -1.000000 0.000000
vn 0.000000 0.000000 1.000000
vn 0.000000 0.000000 1.000000
vn 0.000000 0.000000 1.000000
vn 0.000000 0.000000 1.000000
vn 0.000000 1.000000 -0.000000
vn 0.000000 1.000000 -0.000000
vn 0.000000 1.000000 -0.000000
vn 0.000000 1.000000 -0.000000
vn 0.000000 -0.000000 -1.000000
vn 0.000000 -0.000000 -1.000000
vn 0.000000 -0.000000 -1.000000
vn 0.000000 -0.000000 -1.000000
vn 1.000000 0.000000 0.000000
vn 1.000000 0.000000 0.000000
vn 1.000000 0.000000 0.000000
vn 1.000000 0.000000 0.000000
g pCube2
usemtl blinn1SG
f 44/105/121 41/106/122 43/108/123
f 43/108/123 41/106/122 42/107/124
f 45/117/125 46/118/126 52/120/127
f 52/120/127 46/118/126 51/119/128
f 46/109/129 45/110/130 47/112/131
f 47/112/131 45/110/130 48/111/132
f 47/123/133 48/124/134 49/126/135
f 49/126/135 48/124/134 50/125/136
f 49/115/137 50/114/138 51/116/139
f 51/116/139 50/114/138 52/113/140
f 41/129/141 46/130/142 42/132/143
f 42/132/143 46/130/142 47/131/144
f 42/127/145 47/123/146 43/128/147
f 43/128/147 47/123/146 49/126/148
f 43/133/149 49/134/150 44/136/151
f 44/136/151 49/134/150 51/135/152
f 44/121/153 51/119/154 41/122/155
f 41/122/155 51/119/154 46/118/156
f 45/110/157 52/113/158 48/111/159
f 48/111/159 52/113/158 50/114/160
g default
v 0.081583 -0.827632 -1.607655
v 0.014640 -0.827632 -1.635383
v -0.052304 -0.827632 -1.607655
v -0.080033 -0.827632 -1.540711
v -0.052304 -0.827632 -1.473767
v 0.014640 -0.827632 -1.446038
v 0.081583 -0.827632 -1.473767
v 0.109312 -0.827632 -1.540711
v 0.081583 1.512895 -1.607655
v 0.014640 1.512895 -1.635383
v -0.052304 1.512895 -1.607655
v -0.080033 1.512895 -1.540711
v -0.052304 1.512895 -1.473767
v 0.014640 1.512895 -1.446038
v 0.081583 1.512895 -1.473767
v 0.109312 1.512895 -1.540711
vt 0.091860 0.890377
vt 0.083087 0.890377
vt 0.083087 0.636878
vt 0.091860 0.636878
vt 0.074315 0.890377
vt 0.074315 0.636878
vt 0.109755 0.890377
vt 0.100982 0.890377
vt 0.100982 0.636878
vt 0.109755 0.636878
vt 0.092210 0.890377
vt 0.092210 0.636878
vt 0.338032 0.075095
vt 0.345156 0.092293
vt 0.338032 0.109491
vt 0.320834 0.116615
vt 0.303636 0.109491
vt 0.296512 0.092293
vt 0.303636 0.075095
vt 0.320834 0.067971
vt 0.392004 0.108373
vt 0.374806 0.115497
vt 0.357608 0.108373
vt 0.350485 0.091175
vt 0.357608 0.073977
vt 0.374806 0.066853
vt 0.392004 0.073977
vt 0.399128 0.091175
vt 0.163440 0.890377
vt 0.154668 0.890377
vt 0.154668 0.636878
vt 0.163440 0.636878
vt 0.145895 0.890377
vt 0.145895 0.636878
vt 0.128000 0.636878
vt 0.136773 0.636878
vt 0.136773 0.890377
vt 0.128000 0.890377
vt 0.145545 0.636878
vt 0.145545 0.890377
vn 0.382683 0.000000 -0.923880
vn 0.382683 0.000000 -0.923880
vn 0.382683 0.000000 -0.923880
vn 0.382683 0.000000 -0.923880
vn -0.382683 0.000000 -0.923880
vn -0.382683 0.000000 -0.923880
vn -0.382683 0.000000 -0.923880
vn -0.382683 0.000000 -0.923880
vn -0.923880 0.000000 -0.382683
vn -0.923880 0.000000 -0.382683
vn -0.923880 0.000000 -0.382683
vn -0.923880 0.000000 -0.382683
vn -0.923880 0.000000 0.382683
vn -0.923880 0.000000 0.382683
vn -0.923880 0.000000 0.382683
vn -0.923880 0.000000 0.382683
vn -0.382683 0.000000 0.923880
vn -0.382683 0.000000 0.923880
vn -0.382683 0.000000 0.923880
vn -0.382683 0.000000 0.923880
vn 0.382683 0.000000 0.923880
vn 0.382683 0.000000 0.923880
vn 0.382683 0.000000 0.923880
vn 0.382683 0.000000 0.923880
vn 0.923880 0.000000 0.382683
vn 0.923880 0.000000 0.382683
vn 0.923880 0.000000 0.382683
vn 0.923880 0.000000 0.382683
vn 0.923880 0.000000 -0.382683
vn 0.923880 0.000000 -0.382683
vn 0.923880 0.000000 -0.382683
vn 0.923880 0.000000 -0.382683
vn 0.000000 -1.000000 0.000000
vn 0.000000 -1.000000 0.000000
vn 0.000000 -1.000000 0.000000
vn 0.000000 -1.000000 0.000000
vn 0.000000 -1.000000 0.000000
vn 0.000000 -1.000000 0.000000
vn 0.000000 -1.000000 0.000000
vn 0.000000 -1.000000 0.000000
vn 0.000000 1.000000 0.000000
vn 0.000000 1.000000 0.000000
vn 0.000000 1.000000 0.000000
vn 0.000000 1.000000 0.000000
vn 0.000000 1.000000 0.000000
vn 0.000000 1.000000 0.000000
vn 0.000000 1.000000 0.000000
vn 0.000000 1.000000 0.000000
g pCylinder4
usemtl blinn1SG
f 53/165/161 54/166/162 61/168/163
f 61/168/163 54/166/162 62/167/164
f 54/166/165 55/169/166 62/167/167
f 62/167/167 55/169/166 63/170/168
f 55/137/169 56/138/170 63/140/171
f 63/140/171 56/138/170 64/139/172
f 56/138/173 57/141/174 64/139/175
f 64/139/175 57/141/174 65/142/176
f 57/171/177 58/172/178 65/174/179
f 65/174/179 58/172/178 66/173/180
f 58/172/181 59/175/182 66/173/183
f 66/173/183 59/175/182 67/176/184
f 59/143/185 60/144/186 67/146/187
f 67/146/187 60/144/186 68/145/188
f 60/144/189 53/147/190 68/145/191
f 68/145/191 53/147/190 61/148/192
f 53/149/193 60/150/194 54/156/195
f 60/150/194 59/151/196 54/156/195
f 59/151/196 58/152/197 54/156/195
f 58/152/197 57/153/198 54/156/195
f 57/153/198 56/154/199 54/156/195
f 56/154/199 55/155/200 54/156/195
f 61/157/201 62/158/202 68/164/203
f 62/158/202 63/159/204 68/164/203
f 63/159/204 64/160/205 68/164/203
f 64/160/205 65/161/206 68/164/203
f 65/161/206 66/162/207 68/164/203
f 66/162/207 67/163/208 68/164/203
g default
v 0.081583 -0.827632 2.627044
v 0.014640 -0.827632 2.599316
v -0.052304 -0.827632 2.627044
v -0.080033 -0.827632 2.693988
v -0.052304 -0.827632 2.760932
v 0.014640 -0.827632 2.788661
v 0.081583 -0.827632 2.760932
v 0.109312 -0.827632 2.693988
v 0.081583 1.512895 2.627044
v 0.014640 1.512895 2.599316
v -0.052304 1.512895 2.627044
v -0.080033 1.512895 2.693988
v -0.052304 1.512895 2.760932
v 0.014640 1.512895 2.788661
v 0.081583 1.512895 2.760932
v 0.109312 1.512895 2.693988
vt 0.091860 0.890377
vt 0.083087 0.890377
vt 0.083087 0.636878
vt 0.091860 0.636878
vt 0.074315 0.890377
vt 0.074315 0.636878
vt 0.109755 0.890377
vt 0.100982 0.890377
vt 0.100982 0.636878
vt 0.109755 0.636878
vt 0.092210 0.890377
vt 0.092210 0.636878
vt 0.338032 0.075095
vt 0.345156 0.092293
vt 0.338032 0.109491
vt 0.320834 0.116615
vt 0.303636 0.109491
vt 0.296512 0.092293
vt 0.303636 0.075095
vt 0.320834 0.067971
vt 0.392004 0.108373
vt 0.374806 0.115497
vt 0.357608 0.108373
vt 0.350485 0.091175
vt 0.357608 0.073977
vt 0.374806 0.066853
vt 0.392004 0.073977
vt 0.399128 0.091175
vt 0.163440 0.890377
vt 0.154668 0.890377
vt 0.154668 0.636878
vt 0.163440 0.636878
vt 0.145895 0.890377
vt 0.145895 0.636878
vt 0.128000 0.636878
vt 0.136773 0.636878
vt 0.136773 0.890377
vt 0.128000 0.890377
vt 0.145545 0.636878
vt 0.145545 0.890377
vn 0.382683 0.000000 -0.923880
vn 0.382683 0.000000 -0.923880
vn 0.382683 0.000000 -0.923880
vn 0.382683 0.000000 -0.923880
vn -0.382683 0.000000 -0.923880
vn -0.382683 0.000000 -0.923880
vn -0.382683 0.000000 -0.923880
vn -0.382683 0.000000 -0.923880
vn -0.923880 0.000000 -0.382683
vn -0.923880 0.000000 -0.382683
vn -0.923880 0.000000 -0.382683
vn -0.923880 0.000000 -0.382683
vn -0.923880 0.000000 0.382683
vn -0.923880 0.000000 0.382683
vn -0.923880 0.000000 0.382683
vn -0.923880 0.000000 0.382683
vn -0.382683 0.000000 0.923880
vn -0.382683 0.000000 0.923880
vn -0.382683 0.000000 0.923880
vn -0.382683 0.000000 0.923880
vn 0.382683 0.000000 0.923880
vn 0.382683 0.000000 0.923880
vn 0.382683 0.000000 0.923880
vn 0.382683 0.000000 0.923880
vn 0.923880 0.000000 0.382683
vn 0.923880 0.000000 0.382683
vn 0.923880 0.000000 0.382683
vn 0.923880 0.000000 0.382683
vn 0.923880 0.000000 -0.382683
vn 0.923880 0.000000 -0.382683
vn 0.923880 0.000000 -0.382683
vn 0.923880 0.000000 -0.382683
vn 0.000000 -1.000000 0.000000
vn 0.000000 -1.000000 0.000000
vn 0.000000 -1.000000 0.000000
vn 0.000000 -1.000000 0.000000
vn 0.000000 -1.000000 0.000000
vn 0.000000 -1.000000 0.000000
vn 0.000000 -1.000000 0.000000
vn 0.000000 -1.000000 0.000000
vn 0.000000 1.000000 0.000000
vn 0.000000 1.000000 0.000000
vn 0.000000 1.000000 0.000000
vn 0.000000 1.000000 0.000000
vn 0.000000 1.000000 0.000000
vn 0.000000 1.000000 0.000000
vn 0.000000 1.000000 0.000000
vn 0.000000 1.000000 0.000000
g pCylinder5
usemtl blinn1SG
f 69/205/209 70/206/210 77/208/211
f 77/208/211 70/206/210 78/207/212
f 70/206/213 71/209/214 78/207/215
f 78/207/215 71/209/214 79/210/216
f 71/177/217 72/178/218 79/180/219
f 79/180/219 72/178/218 80/179/220
f 72/178/221 73/181/222 80/179/223
f 80/179/223 73/181/222 81/182/224
f 73/211/225 74/212/226 81/214/227
f 81/214/227 74/212/226 82/213/228
f 74/212/229 75/215/230 82/213/231
f 82/213/231 75/215/230 83/216/232
f 75/183/233 76/184/234 83/186/235
f 83/186/235 76/184/234 84/185/236
f 76/184/237 69/187/238 84/185/239
f 84/185/239 69/187/238 77/188/240
f 69/189/241 76/190/242 70/196/243
f 76/190/242 75/191/244 70/196/243
f 75/191/244 74/192/245 70/196/243
f 74/192/245 73/193/246 70/196/243
f 73/193/246 72/194/247 70/196/243
f 72/194/247 71/195/248 70/196/243
f 77/197/249 78/198/250 84/204/251
f 78/198/250 79/199/252 84/204/251
f 79/199/252 80/200/253 84/204/251
f 80/200/253 81/201/254 84/204/251
f 81/201/254 82/202/255 84/204/251
f 82/202/255 83/203/256 84/204/251
g default
v 0.081583 -0.827632 1.488191
v 0.014640 -0.827632 1.460462
v -0.052304 -0.827632 1.488191
v -0.080033 -0.827632 1.555135
v -0.052304 -0.827632 1.622079
v 0.014640 -0.827632 1.649808
v 0.081583 -0.827632 1.622079
v 0.109312 -0.827632 1.555135
v 0.081583 1.512895 1.488191
v 0.014640 1.512895 1.460462
v -0.052304 1.512895 1.488191
v -0.080033 1.512895 1.555135
v -0.052304 1.512895 1.622079
v 0.014640 1.512895 1.649808
v 0.081583 1.512895 1.622079
v 0.109312 1.512895 1.555135
vt 0.091860 0.890377
vt 0.083087 0.890377
vt 0.083087 0.636878
vt 0.091860 0.636878
vt 0.074315 0.890377
vt 0.074315 0.636878
vt 0.109755 0.890377
vt 0.100982 0.890377
vt 0.100982 0.636878
vt 0.109755 0.636878
vt 0.092210 0.890377
vt 0.092210 0.636878
vt 0.338032 0.075095
vt 0.345156 0.092293
vt 0.338032 0.109491
vt 0.320834 0.116615
vt 0.303636 0.109491
vt 0.296512 0.092293
vt 0.303636 0.075095
vt 0.320834 0.067971
vt 0.392004 0.108373
vt 0.374806 0.115497
vt 0.357608 0.108373
vt 0.350485 0.091175
vt 0.357608 0.073977
vt 0.374806 0.066853
vt 0.392004 0.073977
vt 0.399128 0.091175
vt 0.163440 0.890377
vt 0.154668 0.890377
vt 0.154668 0.636878
vt 0.163440 0.636878
vt 0.145895 0.890377
vt 0.145895 0.636878
vt 0.128000 0.636878
vt 0.136773 0.636878
vt 0.136773 0.890377
vt 0.128000 0.890377
vt 0.145545 0.636878
vt 0.145545 0.890377
vn 0.382683 0.000000 -0.923880
vn 0.382683 0.000000 -0.923880
vn 0.382683 0.000000 -0.923880
vn 0.382683 0.000000 -0.923880
vn -0.382683 0.000000 -0.923880
vn -0.382683 0.000000 -0.923880
vn -0.382683 0.000000 -0.923880
vn -0.382683 0.000000 -0.923880
vn -0.923880 0.000000 -0.382683
vn -0.923880 0.000000 -0.382683
vn -0.923880 0.000000 -0.382683
vn -0.923880 0.000000 -0.382683
vn -0.923880 0.000000 0.382683
vn -0.923880 0.000000 0.382683
vn -0.923880 0.000000 0.382683
vn -0.923880 0.000000 0.382683
vn -0.382683 0.000000 0.923880
vn -0.382683 0.000000 0.923880
vn -0.382683 0.000000 0.923880
vn -0.382683 0.000000 0.923880
vn 0.382683 0.000000 0.923880
vn 0.382683 0.000000 0.923880
vn 0.382683 0.000000 0.923880
vn 0.382683 0.000000 0.923880
vn 0.923880 0.000000 0.382683
vn 0.923880 0.000000 0.382683
vn 0.923880 0.000000 0.382683
vn 0.923880 0.000000 0.382683
vn 0.923880 0.000000 -0.382683
vn 0.923880 0.000000 -0.382683
vn 0.923880 0.000000 -0.382683
vn 0.923880 0.000000 -0.382683
vn 0.000000 -1.000000 0.000000
vn 0.000000 -1.000000 0.000000
vn 0.000000 -1.000000 0.000000
vn 0.000000 -1.000000 0.000000
vn 0.000000 -1.000000 0.000000
vn 0.000000 -1.000000 0.000000
vn 0.000000 -1.000000 0.000000
vn 0.000000 -1.000000 0.000000
vn 0.000000 1.000000 0.000000
vn 0.000000 1.000000 0.000000
vn 0.000000 1.000000 0.000000
vn 0.000000 1.000000 0.000000
vn 0.000000 1.000000 0.000000
vn 0.000000 1.000000 0.000000
vn 0.000000 1.000000 0.000000
vn 0.000000 1.000000 0.000000
g pCylinder6
usemtl blinn1SG
f 85/245/257 86/246/258 93/248/259
f 93/248/259 86/246/258 94/247/260
f 86/246/261 87/249/262 94/247/263
f 94/247/263 87/249/262 95/250/264
f 87/217/265 88/218/266 95/220/267
f 95/220/267 88/218/266 96/219/268
f 88/218/269 89/221/270 96/219/271
f 96/219/271 89/221/270 97/222/272
f 89/251/273 90/252/274 97/254/275
f 97/254/275 90/252/274 98/253/276
f 90/252/277 91/255/278 98/253/279
f 98/253/279 91/255/278 99/256/280
f 91/223/281 92/224/282 99/226/283
f 99/226/283 92/224/282 100/225/284
f 92/224/285 85/227/286 100/225/287
f 100/225/287 85/227/286 93/228/288
f 85/229/289 92/230/290 86/236/291
f 92/230/290 91/231/292 86/236/291
f 91/231/292 90/232/293 86/236/291
f 90/232/293 89/233/294 86/236/291
f 89/233/294 88/234/295 86/236/291
f 88/234/295 87/235/296 86/236/291
f 93/237/297 94/238/298 100/244/299
f 94/238/298 95/239/300 100/244/299
f 95/239/300 96/240/301 100/244/299
f 96/240/301 97/241/302 100/244/299
f 97/241/302 98/242/303 100/244/299
f 98/242/303 99/243/304 100/244/299
