# This file uses centimeters as units for non-parametric coordinates.

mtllib light.mtl
g default
v -0.050000 -0.050000 0.050000
v 0.050000 -0.050000 0.050000
v -0.050000 0.050000 0.050000
v 0.050000 0.050000 0.050000
v -0.050000 0.050000 -0.050000
v -0.050000 -0.050000 -0.050000
v -0.050000 1.850000 0.050000
v 0.050000 1.850000 0.050000
v -0.050000 1.850000 -0.050000
v -0.050000 1.923300 0.042274
v 0.050000 1.923300 0.042274
v -0.050000 1.976700 -0.042274
v -0.050000 2.065123 0.067387
v 0.050000 2.065123 0.067387
v -0.050000 2.123525 -0.013787
v -0.050000 2.210533 0.162872
v 0.050000 2.210533 0.162872
v -0.050000 2.302810 0.124338
v -0.050000 2.318607 0.322851
v 0.050000 2.318607 0.322851
v -0.050000 2.418508 0.318408
v -0.050000 2.330409 0.503468
v 0.050000 2.330408 0.503468
v -0.050000 2.424477 0.537396
v -0.039628 2.319852 0.532738
v 0.039628 2.319852 0.532738
v 0.158512 2.239183 0.756405
v -0.158513 2.239183 0.756405
v -0.039628 2.282224 0.519167
v 0.039628 2.282224 0.519167
v 0.158512 2.201556 0.742834
v -0.158513 2.201556 0.742834
v -0.167952 2.255576 0.795394
v -0.184670 2.243043 0.781169
v -0.186412 2.244594 0.762544
v 0.168372 2.255221 0.795267
v 0.184871 2.242854 0.781229
v 0.186590 2.244384 0.762848
v -0.168754 2.299660 0.811294
v -0.185922 2.318022 0.809349
v -0.187470 2.331198 0.796027
v 0.050000 0.050000 -0.024394
v 0.024394 0.050000 -0.050000
v 0.050000 -0.050000 -0.024394
v 0.024394 -0.050000 -0.050000
v 0.050000 1.849220 -0.024394
v 0.024394 1.850000 -0.050000
v 0.050000 1.968312 -0.017132
v 0.024394 1.976700 -0.042274
v 0.050000 2.111125 0.008984
v 0.024394 2.123525 -0.013787
v 0.050000 2.283317 0.141643
v 0.024394 2.302810 0.124338
v 0.050000 2.393093 0.325783
v 0.024394 2.418508 0.318408
v 0.050000 2.399317 0.528321
v 0.023253 2.424477 0.537396
v 0.141974 2.299048 0.811073
v 0.168133 2.275461 0.802566
v 0.185296 2.292327 0.799575
v 0.160583 2.317897 0.809073
v 0.160377 2.331426 0.795396
v 0.186959 2.306487 0.786031
vt 0.001992 0.001880
vt 0.038711 0.001880
vt 0.038711 0.038599
vt 0.001992 0.038599
vt 0.038711 0.699540
vt 0.001992 0.699540
vt 0.035874 0.726455
vt 0.004829 0.746063
vt 0.051856 0.753321
vt 0.028063 0.781288
vt 0.098699 0.796746
vt 0.093089 0.833034
vt 0.165245 0.821182
vt 0.172459 0.857186
vt 0.230669 0.809483
vt 0.251048 0.840028
vt 0.315465 0.756077
vt 0.335028 0.784000
vt 0.321968 0.753883
vt 0.338616 0.778130
vt 0.737543 0.869328
vt 0.689089 0.941955
vt 0.676871 0.933804
vt 0.725325 0.861177
vt 0.622282 0.861177
vt 0.670735 0.933804
vt 0.658517 0.941955
vt 0.610064 0.869328
vt 0.644998 0.001880
vt 0.672315 0.001880
vt 0.672315 0.038599
vt 0.644998 0.038599
vt 0.681717 0.038599
vt 0.681717 0.001880
vt 0.672315 0.699254
vt 0.644998 0.699540
vt 0.681717 0.699540
vt 0.669649 0.742983
vt 0.647835 0.726455
vt 0.678881 0.746063
vt 0.648622 0.774862
vt 0.631854 0.753321
vt 0.655647 0.781288
vt 0.586168 0.824561
vt 0.585010 0.796746
vt 0.590620 0.833034
vt 0.510860 0.847477
vt 0.518465 0.821182
vt 0.511250 0.857186
vt 0.438112 0.831858
vt 0.453040 0.809483
vt 0.432662 0.840028
vt 0.354421 0.776071
vt 0.368155 0.755975
vt 0.348887 0.784136
vt 0.361737 0.753811
vt 0.350840 0.769831
vt 0.345203 0.778109
vt 0.567210 0.861177
vt 0.594526 0.861177
vt 0.603929 0.870579
vt 0.603929 0.897896
vt 0.567210 0.897896
vt 0.911135 0.402484
vt 0.947854 0.402484
vt 0.947854 0.469029
vt 0.911135 0.469029
vt 0.911135 0.355640
vt 0.947854 0.355640
vt 0.947854 0.534454
vt 0.911135 0.534454
vt 0.911135 0.339659
vt 0.947854 0.339659
vt 0.944045 0.543958
vt 0.914943 0.543958
vt 0.998008 0.619339
vt 0.987698 0.616585
vt 0.861046 0.619250
vt 0.871290 0.616585
vt 0.861685 0.625752
vt 0.997377 0.625757
vt 0.867824 0.631927
vt 0.991319 0.631850
vt 0.867530 0.641477
vt 0.861225 0.642401
vt 0.991231 0.636235
vt 0.981625 0.641344
vt 0.843970 0.247407
vt 0.816654 0.247407
vt 0.816654 0.168037
vt 0.843970 0.168037
vt 0.843970 0.312434
vt 0.816654 0.312434
vt 0.816654 0.089449
vt 0.843551 0.089449
vt 0.843970 0.335667
vt 0.816654 0.335667
vt 0.766176 0.005469
vt 0.893902 0.005673
vt 0.893977 0.001989
vt 0.766744 0.001880
vt 0.723299 0.001880
vt 0.760018 0.001880
vt 0.760018 0.038599
vt 0.723299 0.038599
vt 0.760018 0.699540
vt 0.723299 0.699540
vt 0.760018 0.726455
vt 0.723299 0.726455
vt 0.847995 0.355567
vt 0.840336 0.345961
vt 0.846611 0.339659
vt 0.854890 0.348734
vt 0.833764 0.345873
vt 0.830591 0.339815
vt 0.854910 0.475966
vt 0.848193 0.469662
vt 0.688218 0.709344
vt 0.715535 0.709344
vt 0.715535 0.746063
vt 0.688218 0.746063
vt 0.688218 0.048403
vt 0.715535 0.048403
vt 0.688218 0.001880
vt 0.715535 0.001880
vt 0.743678 0.803202
vt 0.743678 0.774100
vt 0.816305 0.730446
vt 0.816305 0.846855
vt 0.751829 0.803202
vt 0.751829 0.774100
vt 0.824456 0.730446
vt 0.824456 0.846855
vn 0.000000 0.000000 1.000000
vn 0.000000 0.000000 1.000000
vn 0.000000 0.000000 1.000000
vn 0.000000 0.000000 1.000000
vn 0.000000 -1.000000 0.000000
vn 0.000000 -1.000000 0.000000
vn 0.000000 -1.000000 0.000000
vn 0.000000 -1.000000 0.000000
vn 0.000000 -1.000000 0.000000
vn -1.000000 0.000000 0.000000
vn -1.000000 0.000000 0.000000
vn -1.000000 0.000000 0.000000
vn -1.000000 0.000000 0.000000
vn 0.000000 0.004124 0.999992
vn 0.000000 0.004124 0.999992
vn -1.000000 0.000000 0.000000
vn -1.000000 0.000000 0.000000
vn 0.000000 0.104815 0.994492
vn 0.000000 0.104815 0.994492
vn -1.000000 0.000000 0.000000
vn -1.000000 0.000000 0.000000
vn 0.000000 -0.174358 0.984682
vn 0.000000 -0.174358 0.984682
vn 0.000000 -0.387121 0.922029
vn 0.000000 -0.387121 0.922029
vn -1.000000 0.000000 -0.000000
vn -1.000000 0.000000 -0.000000
vn 0.000000 -0.548894 0.835892
vn 0.000000 -0.548894 0.835892
vn -1.000000 -0.000000 -0.000000
vn -1.000000 -0.000000 -0.000000
vn 0.000000 -0.828639 0.559783
vn 0.000000 -0.828639 0.559783
vn -0.000000 -0.943282 0.331994
vn -0.000000 -0.943282 0.331993
vn -1.000000 -0.000000 -0.000000
vn -1.000000 0.000000 -0.000000
vn -0.000001 -0.997872 0.065203
vn -0.000001 -0.997872 0.065203
vn -0.968164 0.084925 -0.235469
vn -0.952037 0.103812 -0.287835
vn 0.000000 -0.940688 -0.339272
vn 0.000000 -0.940688 -0.339272
vn 0.000000 -0.940688 -0.339272
vn 0.000000 -0.940688 -0.339272
vn -0.086858 -0.924663 -0.370747
vn 0.085685 -0.924933 -0.370346
vn 0.106636 -0.919848 -0.377503
vn -0.108099 -0.919477 -0.377991
vn 0.000000 0.339272 -0.940688
vn 0.000000 0.339272 -0.940688
vn 0.000000 0.339272 -0.940688
vn 0.000000 0.339272 -0.940688
vn 0.894427 0.151728 -0.420690
vn 0.894427 0.151728 -0.420690
vn 0.894427 0.151728 -0.420690
vn 0.894427 0.151728 -0.420690
vn -0.000001 -0.339276 0.940687
vn -0.000001 -0.339276 0.940687
vn -0.000001 -0.339276 0.940687
vn -0.000001 -0.339276 0.940687
vn -0.894425 0.151728 -0.420692
vn -0.894425 0.151728 -0.420692
vn -0.894425 0.151728 -0.420692
vn -0.894425 0.151728 -0.420692
vn -0.030479 -0.503084 0.863700
vn 0.018751 -0.508501 0.860857
vn 0.028008 -0.330914 0.943245
vn 0.006773 -0.215256 0.976534
vn -0.031367 -0.188300 0.981610
vn -0.894427 0.151728 -0.420689
vn -0.894427 0.151728 -0.420689
vn 0.141956 -0.910163 -0.389168
vn 0.141956 -0.910163 -0.389168
vn -0.000517 -0.764431 0.644706
vn -0.000517 -0.764431 0.644706
vn -0.000517 -0.764431 0.644706
vn -0.000517 -0.764431 0.644706
vn -0.143907 -0.909590 -0.389791
vn -0.143906 -0.909590 -0.389791
vn -0.000514 -0.750328 0.661066
vn -0.000514 -0.750328 0.661066
vn -0.000496 -0.996553 -0.082962
vn -0.000496 -0.996553 -0.082962
vn -0.000496 -0.996553 -0.082962
vn -0.000496 -0.996553 -0.082962
vn -0.995631 -0.045371 0.081606
vn -0.995631 -0.045371 0.081606
vn -0.995631 -0.045371 0.081606
vn -0.995631 -0.045371 0.081606
vn -0.452321 -0.316491 0.833810
vn -0.452321 -0.316491 0.833810
vn 0.707107 0.000000 -0.707107
vn 0.707107 0.000000 -0.707107
vn 0.707146 0.002756 -0.707062
vn 0.707146 0.002756 -0.707062
vn 0.707107 0.000000 -0.707107
vn 0.707107 0.000000 -0.707107
vn 0.706648 0.095182 -0.701135
vn 0.706843 0.087238 -0.701970
vn 0.715610 0.321387 -0.620172
vn 0.715818 0.311387 -0.625015
vn 0.713386 0.523735 -0.465598
vn 0.713387 0.523736 -0.465597
vn 0.712554 0.673436 -0.196855
vn 0.712566 0.673320 -0.197207
vn 0.678429 0.732352 -0.058258
vn 0.677901 0.732741 -0.059509
vn 0.665969 0.740901 -0.086892
vn 0.665969 0.740901 -0.086892
vn 0.312042 -0.169679 0.934794
vn 0.056103 0.057649 0.996759
vn 0.683478 0.493147 0.538204
vn 0.683478 0.493147 0.538204
vn 0.683478 0.493147 0.538204
vn 0.683478 0.493147 0.538204
vn 0.000000 0.000000 -1.000000
vn 0.000000 0.000000 -1.000000
vn 0.000000 0.000000 -1.000000
vn 0.000000 0.000000 -1.000000
vn 1.000000 0.000000 0.000000
vn 1.000000 0.000000 0.000000
vn 1.000000 0.000000 0.000000
vn 1.000000 0.000000 0.000000
vn 1.000000 0.000000 0.000000
vn 1.000000 0.000000 0.000000
vn 0.000000 0.004010 -0.999992
vn 0.000000 0.004010 -0.999992
vn 1.000000 0.000000 0.000000
vn 1.000000 0.000000 0.000000
vn 0.000000 0.131249 -0.991349
vn 0.000000 0.131249 -0.991349
vn 1.000000 0.000000 0.000000
vn 1.000000 0.000000 0.000000
vn 0.000000 0.454966 -0.890509
vn 0.000000 0.454966 -0.890509
vn 1.000000 0.000000 0.000000
vn 1.000000 0.000000 0.000000
vn 0.000000 0.747746 -0.663985
vn 0.000000 0.747746 -0.663985
vn 1.000000 -0.000000 0.000000
vn 1.000000 0.000000 0.000000
vn 0.000000 0.958969 -0.283513
vn 0.000000 0.958846 -0.283928
vn 0.951240 0.104649 -0.290157
vn 0.967513 0.085774 -0.237824
vn 0.000000 0.960877 0.276977
vn 0.000000 0.960927 0.276803
vn 0.894428 0.151726 -0.420688
vn 0.894428 0.151726 -0.420688
vn 0.000110 0.919973 0.391981
vn 0.000115 0.918881 0.394536
vn 0.461949 -0.307299 0.831968
vn 0.995506 -0.039184 0.086217
vn 0.995506 -0.039184 0.086217
vn 0.995506 -0.039184 0.086217
vn 0.995506 -0.039184 0.086217
vn 0.000868 0.105386 0.994431
vn 0.000813 0.710991 0.703201
vn 0.000813 0.710991 0.703201
g pCube1
usemtl texturedFacets
f 1/102/1 2/103/2 4/104/3 3/105/4
f 6/59/5 45/60/6 44/61/7 2/62/8 1/63/9
f 6/1/10 1/2/11 3/3/12 5/4/13
f 3/105/4 4/104/3 8/106/14 7/107/15
f 5/4/13 3/3/12 7/5/16 9/6/17
f 7/107/15 8/106/14 11/108/18 10/109/19
f 9/6/17 7/5/16 10/7/20 12/8/21
f 10/72/22 11/73/23 14/69/24 13/68/25
f 12/8/21 10/7/20 13/9/26 15/10/27
f 13/68/25 14/69/24 17/65/28 16/64/29
f 15/10/27 13/9/26 16/11/30 18/12/31
f 16/64/32 17/65/33 20/66/34 19/67/35
f 18/12/31 16/11/30 19/13/36 21/14/37
f 19/67/35 20/66/34 23/70/38 22/71/39
f 21/14/37 19/13/36 22/15/40 24/16/41
f 29/126/42 30/127/43 31/128/44 32/129/45
f 22/71/46 23/70/47 26/74/48 25/75/49
f 25/130/50 26/131/51 30/127/52 29/126/53
f 26/21/54 27/22/55 31/23/56 30/24/57
f 27/132/58 28/133/59 32/129/60 31/128/61
f 28/25/62 25/26/63 29/27/64 32/28/65
f 33/82/66 36/83/67 59/86/68 58/87/69 39/84/70
f 24/16/41 22/15/40 35/17/71 41/18/72
f 23/70/47 38/76/73 27/77/74 26/74/48
f 38/76/75 35/78/76 28/79/77 27/77/78
f 35/78/79 22/71/46 25/75/49 28/79/80
f 33/82/66 34/80/81 37/81/82 36/83/67
f 34/80/83 35/78/84 38/76/85 37/81/86
f 35/17/87 34/19/88 40/20/89 41/18/90
f 34/80/91 33/82/66 39/84/70 40/85/92
f 42/31/93 43/33/94 47/37/95 46/35/96
f 43/33/94 42/31/93 44/30/97 45/34/98
f 46/35/96 47/37/95 49/40/99 48/38/100
f 48/38/100 49/40/99 51/43/101 50/41/102
f 50/41/102 51/43/101 53/46/103 52/44/104
f 52/44/104 53/46/103 55/49/105 54/47/106
f 54/47/106 55/49/105 57/52/107 56/50/108
f 56/50/108 57/52/107 62/55/109 63/53/110
f 58/110/69 59/111/68 60/112/111 61/113/112
f 61/58/113 60/57/114 63/53/115 62/55/116
f 5/118/117 43/119/118 45/120/119 6/121/120
f 2/29/121 44/30/122 42/31/123 4/32/124
f 4/32/124 42/31/123 46/35/125 8/36/126
f 43/119/118 5/118/117 9/122/127 47/123/128
f 8/36/126 46/35/125 48/38/129 11/39/130
f 47/123/128 9/122/127 12/124/131 49/125/132
f 11/39/130 48/38/129 50/41/133 14/42/134
f 49/96/132 12/97/131 15/93/135 51/92/136
f 14/42/134 50/41/133 52/44/137 17/45/138
f 51/92/136 15/93/135 18/89/139 53/88/140
f 17/45/138 52/44/137 54/47/141 20/48/142
f 53/88/140 18/89/139 21/90/143 55/91/144
f 20/48/142 54/47/141 56/50/145 23/51/146
f 55/91/144 21/90/143 24/94/147 57/95/148
f 23/51/146 56/50/145 63/53/149 38/54/150
f 57/95/148 24/94/147 41/98/151 62/99/152
f 36/114/67 37/115/153 60/112/111 59/111/68
f 37/56/154 38/54/155 63/53/156 60/57/157
f 58/110/69 61/113/112 40/116/158 39/117/70
f 61/100/159 62/99/152 41/98/151 40/101/160
