# This file uses centimeters as units for non-parametric coordinates.

mtllib pym2.mtl
g default
v 0.000001 -0.231283 -5.656854
v -5.656854 -0.231283 -0.000000
v -0.000000 -0.231283 5.656854
v 5.656854 -0.231283 0.000000
v 0.000000 5.425572 0.000000
vt 0.000377 0.218062
vt 0.000433 0.652502
vt 0.754380 0.217768
vt 0.378170 0.000500
vt 0.378115 0.434940
vt 0.595658 0.999480
vt 0.595637 0.565039
vt 0.161217 0.999500
vt 0.161196 0.565059
vt 0.754324 0.652209
vt 0.376642 0.435234
vt 0.376586 0.000793
vn 0.000000 -1.000000 0.000000
vn 0.000000 -1.000000 0.000000
vn 0.000000 -1.000000 0.000000
vn 0.000000 -1.000000 0.000000
vn -0.577350 0.577350 -0.577350
vn -0.577350 0.577350 -0.577350
vn -0.577350 0.577350 -0.577350
vn -0.577350 0.577350 0.577350
vn -0.577350 0.577350 0.577350
vn -0.577350 0.577350 0.577350
vn 0.577350 0.577350 0.577350
vn 0.577350 0.577350 0.577350
vn 0.577350 0.577350 0.577350
vn 0.577350 0.577350 -0.577350
vn 0.577350 0.577350 -0.577350
vn 0.577350 0.577350 -0.577350
s off
g pPyramid1
usemtl texturedFacets
f 1/7/1 4/6/2 3/8/3 2/9/4
f 1/1/5 2/12/6 5/11/7
f 2/4/8 3/3/9 5/5/10
f 3/3/11 4/10/12 5/5/13
f 4/2/14 1/1/15 5/11/16
